<svg xmlns="http://www.w3.org/2000/svg" viewBox="1 0 43 41" width="43" height="41">
	<style>
		tspan { white-space:pre }
		.shp0 { fill: #333333 } 
	</style>
	<g id="footer">
		<g id="logo">
			<path id="Shape 1" class="shp0" d="M44 20.98C44.01 20.56 43.88 20.21 43.61 19.95L39.86 16.16L39.9 7.47C39.88 7.41 39.86 7.32 39.85 7.23C39.85 7.2 39.84 7.18 39.83 7.15C39.81 7.1 39.8 7.06 39.79 7.01C39.77 6.96 39.76 6.91 39.74 6.86C39.73 6.83 39.71 6.8 39.7 6.78C39.68 6.72 39.65 6.67 39.62 6.63L39.58 6.57C39.55 6.52 39.51 6.47 39.47 6.42C39.44 6.4 39.42 6.39 39.4 6.37C39.35 6.32 39.3 6.27 39.24 6.23C39.21 6.21 39.18 6.2 39.14 6.18L39.09 6.15C39.06 6.14 39.02 6.12 38.99 6.1C38.86 6.04 38.71 6.01 38.55 6L38.47 6L35.35 6C34.99 6 34.66 6.14 34.4 6.39C34.15 6.64 34.01 6.97 34.01 7.33C34.01 8.06 34.61 8.66 35.35 8.66L37.16 8.66L37.16 16.64C37.15 16.76 37.16 16.88 37.18 16.97C37.24 17.38 37.46 17.72 37.78 17.92L37.94 18.05L40.84 20.95L37.61 24.18C37.45 24.32 37.33 24.49 37.26 24.67C37.22 24.75 37.21 24.82 37.2 24.88L37.18 24.95C37.16 25.04 37.15 25.19 37.16 25.31L37.16 33.4L35.35 33.4C34.6 33.4 34.01 33.96 34.01 34.68C34.01 35.04 34.15 35.36 34.4 35.61C34.65 35.86 34.98 35.99 35.34 35.99L38.49 35.97C38.66 35.97 38.82 35.94 38.98 35.88L39.16 35.78C39.19 35.76 39.22 35.75 39.25 35.73C39.29 35.7 39.35 35.65 39.4 35.6L39.46 35.55C39.5 35.51 39.55 35.45 39.59 35.39L39.62 35.34C39.65 35.29 39.68 35.23 39.7 35.18L39.73 35.12C39.75 35.08 39.76 35.03 39.77 34.98C39.78 34.95 39.79 34.9 39.81 34.86C39.82 34.82 39.83 34.77 39.85 34.72C39.85 34.71 39.85 34.73 39.85 34.75C39.86 34.65 39.88 34.57 39.9 34.5L39.86 25.74L43.62 21.95C43.88 21.7 44.01 21.36 44 20.98ZM29.53 1.1C29.37 0.97 29.14 0.82 28.91 0.82L28.82 0.82L20.25 0C20.23 0 20.21 0.01 20.18 0.01C20.16 0.02 20.14 0.02 20.12 0.02C20.06 0.04 20 0.06 19.94 0.07C19.89 0.09 19.84 0.1 19.79 0.11C19.77 0.12 19.74 0.14 19.72 0.15L19.56 0.22C19.51 0.25 19.45 0.3 19.4 0.34L19.34 0.39C19.31 0.42 19.26 0.46 19.21 0.53L19.18 0.56C19.14 0.61 19.11 0.67 19.08 0.72L19.05 0.78C19.02 0.83 19.01 0.88 18.99 0.92C18.98 0.95 18.97 0.98 18.96 1C18.96 1.01 18.96 1.03 18.96 1.05L18.94 1.13C18.94 1.16 18.93 1.2 18.92 1.24L15.99 34.76C15.93 35.14 16.03 35.51 16.26 35.79L20.12 40.46C20.13 40.49 20.15 40.51 20.16 40.53C20.41 40.83 20.76 41 21.14 41L21.14 41C21.44 41 21.72 40.9 21.96 40.7L26.61 36.7C26.66 36.66 26.71 36.6 26.77 36.53L26.8 36.5C26.96 36.27 27.05 36.04 27.06 35.78L29.31 9.79L29.33 9.71C29.36 9.62 29.37 9.55 29.38 9.49C29.38 9.43 29.38 9.37 29.37 9.28L29.36 9.2L29.99 2.22C30.03 1.79 29.86 1.37 29.53 1.1ZM24.64 34.31L18.63 33.78L20.68 10.01L26.69 10.55L24.64 34.31ZM26.92 7.97L20.91 7.44L21.34 2.76L27.35 3.29L26.92 7.97ZM1 20.98C0.99 20.56 1.12 20.21 1.39 19.95L5.14 16.16L5.1 7.47C5.12 7.41 5.14 7.32 5.15 7.23C5.15 7.2 5.16 7.18 5.17 7.15C5.19 7.1 5.2 7.06 5.21 7.01C5.23 6.96 5.24 6.91 5.26 6.86C5.27 6.83 5.29 6.8 5.3 6.78C5.32 6.72 5.35 6.67 5.38 6.63L5.42 6.57C5.45 6.52 5.49 6.47 5.53 6.42C5.56 6.4 5.58 6.39 5.6 6.37C5.65 6.32 5.7 6.27 5.76 6.23C5.79 6.21 5.82 6.2 5.86 6.18L5.91 6.15C5.94 6.14 5.98 6.12 6.01 6.1C6.14 6.04 6.29 6.01 6.45 6L6.53 6L9.65 6C10.01 6 10.34 6.14 10.6 6.39C10.85 6.64 10.99 6.97 10.99 7.33C10.99 8.06 10.39 8.66 9.65 8.66L7.84 8.66L7.84 16.64C7.85 16.76 7.84 16.88 7.82 16.97C7.76 17.38 7.54 17.72 7.22 17.92L7.06 18.05L4.16 20.95L7.39 24.18C7.55 24.32 7.67 24.49 7.74 24.67C7.77 24.75 7.79 24.82 7.8 24.88L7.82 24.95C7.84 25.04 7.85 25.19 7.84 25.31L7.84 33.4L9.65 33.4C10.4 33.4 10.99 33.96 10.99 34.68C10.99 35.04 10.85 35.36 10.6 35.61C10.35 35.86 10.02 35.99 9.66 35.99L6.51 35.97C6.34 35.97 6.18 35.94 6.02 35.88L5.84 35.78C5.81 35.76 5.78 35.75 5.75 35.73C5.71 35.7 5.65 35.65 5.6 35.6L5.54 35.55C5.5 35.51 5.45 35.45 5.41 35.39L5.38 35.34C5.35 35.29 5.32 35.23 5.3 35.18L5.27 35.12C5.25 35.08 5.24 35.03 5.23 34.98C5.22 34.95 5.21 34.9 5.19 34.86C5.18 34.82 5.17 34.77 5.15 34.72C5.15 34.71 5.15 34.73 5.15 34.75C5.14 34.65 5.12 34.57 5.1 34.5L5.14 25.74L1.38 21.95C1.12 21.7 0.99 21.36 1 20.98Z" />
		</g>
	</g>
</svg>