<svg xmlns="http://www.w3.org/2000/svg" viewBox="1 1 43 41" width="43" height="41">
	<style>
		tspan { white-space:pre }
		.shp0 { fill: #ffffff } 
	</style>
	<g id="top menu hover">
		<g id="logo copy">
			<path id="Logo hover copy" class="shp0" d="M44 21.98C44.01 21.56 43.88 21.21 43.61 20.95L39.86 17.16L39.9 8.47C39.88 8.41 39.86 8.32 39.85 8.23C39.85 8.2 39.84 8.18 39.83 8.15C39.81 8.1 39.8 8.06 39.79 8.01C39.77 7.96 39.76 7.91 39.74 7.86C39.73 7.83 39.71 7.8 39.7 7.77C39.68 7.72 39.65 7.67 39.62 7.63L39.58 7.57C39.55 7.52 39.51 7.47 39.47 7.42C39.44 7.4 39.42 7.38 39.4 7.36C39.35 7.32 39.3 7.27 39.24 7.23C39.21 7.21 39.18 7.2 39.14 7.18L39.09 7.15C39.06 7.14 39.02 7.12 38.99 7.1C38.86 7.04 38.71 7.01 38.55 7L38.47 7L35.35 7C34.99 7 34.66 7.14 34.4 7.39C34.15 7.64 34.01 7.97 34.01 8.33C34.01 9.06 34.61 9.66 35.35 9.66L37.16 9.66L37.16 17.64C37.15 17.76 37.16 17.87 37.18 17.97C37.24 18.38 37.46 18.72 37.78 18.92L37.94 19.05L40.84 21.95L37.61 25.17C37.45 25.32 37.33 25.49 37.26 25.67C37.22 25.75 37.21 25.81 37.2 25.88L37.18 25.94C37.16 26.04 37.15 26.19 37.16 26.31L37.16 34.4L35.35 34.4C34.6 34.4 34.01 34.96 34.01 35.68C34.01 36.03 34.15 36.36 34.4 36.61C34.65 36.85 34.98 36.99 35.34 36.99L38.49 36.97C38.66 36.97 38.82 36.94 38.98 36.88L39.16 36.78C39.19 36.76 39.22 36.75 39.25 36.73C39.29 36.7 39.35 36.65 39.4 36.6L39.46 36.55C39.5 36.51 39.55 36.45 39.59 36.39L39.62 36.34C39.65 36.29 39.68 36.23 39.7 36.18L39.73 36.12C39.75 36.08 39.76 36.03 39.77 35.98C39.78 35.95 39.79 35.9 39.81 35.86C39.82 35.82 39.83 35.77 39.85 35.72C39.85 35.71 39.85 35.73 39.85 35.75C39.86 35.65 39.88 35.57 39.9 35.5L39.86 26.74L43.62 22.95C43.88 22.7 44.01 22.35 44 21.98ZM29.53 2.1C29.37 1.97 29.14 1.82 28.91 1.82L28.82 1.82L20.25 1C20.23 1 20.21 1.01 20.18 1.01C20.16 1.01 20.14 1.02 20.12 1.02C20.06 1.04 20 1.06 19.94 1.07C19.89 1.08 19.84 1.1 19.79 1.11C19.77 1.12 19.74 1.14 19.72 1.15L19.56 1.22C19.51 1.25 19.45 1.3 19.4 1.34L19.34 1.39C19.31 1.42 19.26 1.46 19.21 1.53L19.18 1.56C19.14 1.61 19.11 1.67 19.08 1.72L19.05 1.77C19.02 1.83 19.01 1.88 18.99 1.92C18.98 1.95 18.97 1.98 18.96 2C18.96 2.01 18.96 2.03 18.96 2.05L18.94 2.12C18.94 2.16 18.93 2.2 18.92 2.24L15.99 35.76C15.93 36.14 16.03 36.51 16.26 36.79L20.12 41.46C20.13 41.49 20.15 41.51 20.16 41.53C20.41 41.83 20.76 42 21.14 42L21.14 42C21.44 42 21.72 41.89 21.96 41.7L26.61 37.7C26.66 37.66 26.71 37.6 26.77 37.53L26.8 37.49C26.96 37.27 27.05 37.03 27.06 36.78L29.31 10.79L29.33 10.71C29.36 10.62 29.37 10.55 29.38 10.49C29.38 10.43 29.38 10.36 29.37 10.28L29.36 10.2L29.99 3.22C30.03 2.79 29.86 2.37 29.53 2.1ZM24.64 35.31L18.63 34.78L20.68 11.01L26.69 11.55L24.64 35.31ZM26.92 8.97L20.91 8.44L21.34 3.76L27.35 4.29L26.92 8.97ZM1 21.98C0.99 21.56 1.12 21.21 1.39 20.95L5.14 17.16L5.1 8.47C5.12 8.41 5.14 8.32 5.15 8.23C5.15 8.2 5.16 8.18 5.17 8.15C5.18 8.1 5.2 8.06 5.21 8.01C5.23 7.96 5.24 7.91 5.26 7.86C5.27 7.83 5.29 7.8 5.3 7.77C5.32 7.72 5.35 7.67 5.38 7.63L5.42 7.57C5.45 7.52 5.49 7.47 5.53 7.42C5.56 7.4 5.58 7.38 5.6 7.36C5.65 7.32 5.7 7.27 5.76 7.23C5.79 7.21 5.82 7.2 5.86 7.18L5.91 7.15C5.94 7.14 5.98 7.12 6.01 7.1C6.14 7.04 6.29 7.01 6.45 7L6.53 7L9.65 7C10.01 7 10.34 7.14 10.6 7.39C10.85 7.64 10.99 7.97 10.99 8.33C10.99 9.06 10.39 9.66 9.65 9.66L7.84 9.66L7.84 17.64C7.85 17.76 7.84 17.87 7.82 17.97C7.76 18.38 7.54 18.72 7.22 18.92L7.06 19.05L4.16 21.95L7.39 25.17C7.55 25.32 7.67 25.49 7.74 25.67C7.77 25.75 7.79 25.81 7.8 25.88L7.82 25.94C7.84 26.04 7.85 26.19 7.84 26.31L7.84 34.4L9.65 34.4C10.4 34.4 10.99 34.96 10.99 35.68C10.99 36.03 10.85 36.36 10.6 36.61C10.35 36.85 10.02 36.99 9.66 36.99L6.51 36.97C6.34 36.97 6.18 36.94 6.02 36.88L5.84 36.78C5.81 36.76 5.78 36.75 5.75 36.73C5.71 36.7 5.65 36.65 5.6 36.6L5.54 36.55C5.5 36.51 5.45 36.45 5.41 36.39L5.38 36.34C5.35 36.29 5.32 36.23 5.3 36.18L5.27 36.12C5.25 36.08 5.24 36.03 5.23 35.98C5.22 35.95 5.21 35.9 5.19 35.86C5.18 35.82 5.17 35.77 5.15 35.72C5.15 35.71 5.15 35.73 5.15 35.75C5.14 35.65 5.12 35.57 5.1 35.5L5.14 26.74L1.38 22.95C1.12 22.7 0.99 22.35 1 21.98Z" />
		</g>
	</g>
</svg>